<?xml version="1.0" standalone="no"?><!DOCTYPE svg PUBLIC "-//W3C//DTD SVG 1.1//EN" "http://www.w3.org/Graphics/SVG/1.1/DTD/svg11.dtd"><svg t="1775491628995" class="icon" viewBox="0 0 1024 1024" version="1.1" xmlns="http://www.w3.org/2000/svg" p-id="12313" xmlns:xlink="http://www.w3.org/1999/xlink" width="200" height="200"><path d="M956.274702 419.195357a250.620823 250.620823 0 0 0-22.436215-209.631295c-57.412535-97.525766-170.802291-147.459563-281.472506-123.890207A259.497103 259.497103 0 0 0 457.616619 0.00831C344.604577-0.671576 243.981555 71.396264 208.174264 178.59151a258.295973 258.295973 0 0 0-172.841947 123.890207c-57.034821 96.845881-44.041458 219.149689 32.181237 302.246779a250.635932 250.635932 0 0 0 22.360671 209.631295c57.412535 97.601309 170.877834 147.459563 281.623592 123.890207a259.187378 259.187378 0 0 0 194.749362 85.741088c113.163128 0.830971 213.861692-71.463497 249.366812-178.885372 72.747725-14.579762 135.674885-59.678819 172.841947-123.890207 57.412535-96.845881 44.117-218.847518-32.030151-302.095693h-0.151085z m-389.800895 537.940343c-45.325685 0-89.518229-15.637361-124.494549-44.570257 1.661942-0.906514 4.230397-2.115199 6.118967-3.47497l206.53404-117.771239a32.332322 32.332322 0 0 0 16.92159-29.083981V474.794864l87.251944 49.933797a2.266284 2.266284 0 0 1 1.661942 2.266284v238.110934c0 105.911018-86.949773 191.727649-193.918391 192.029821h-0.075543z m-418.053905-176.014745a189.778645 189.778645 0 0 1-23.342728-128.573861c1.510856 1.057599 4.079312 2.568456 6.118968 3.474969l206.534039 117.771239c10.424908 6.118968 23.342728 6.118968 34.069807 0l252.312982-143.682422v99.565422c0 1.057599-0.302171 1.964113-1.35977 2.568456l-208.875867 118.979924c-92.842112 52.728881-210.764437 21.605243-265.532974-70.028184h0.075543z m-54.466365-445.173774c22.662843-38.980089 58.394591-68.819499 101.151821-84.154689v242.794588c0 11.784678 6.421139 22.965014 16.770504 29.008439l252.312982 143.757966-87.251945 49.480539c-0.830971 0.5288-1.88857 0.679885-2.870626 0.302172L165.190406 598.156272A190.67005 190.67005 0 0 1 74.765663 481.895888a190.964667 190.964667 0 0 1 19.263417-146.024249h-0.075543z m717.656685 164.909952l-252.312982-143.757965 87.251945-49.858254c0.906514-0.604342 1.964113-0.679885 2.946169-0.302171l208.875867 118.979924a190.050599 190.050599 0 0 1 90.424743 116.18484c13.371077 49.329454 6.345596 101.907249-19.490045 145.948707a194.145019 194.145019 0 0 1-101.151821 84.154689V529.412315c0.302171-11.935764-6.118968-23.040557-16.619418-28.706267v0.151085z m87.025316-129.329289c-1.737485-1.057599-4.30594-2.568456-6.270053-3.474969L685.755903 250.281636c-10.50045-6.043425-23.493814-6.043425-33.994264 0l-252.312983 143.682423V294.398636c0-1.057599 0.302171-1.964113 1.359771-2.568455L609.684294 172.774714c92.917655-52.879966 211.066608-21.529701 265.532974 70.481441 22.738386 38.677918 31.123637 84.154689 23.342728 128.271689h0.075542zM352.083315 548.826817l-87.251944-49.556082a2.538238 2.538238 0 0 1-1.661942-2.266285V258.817973c0-105.911018 87.251944-192.029821 194.522733-191.727649 45.325685-0.075543 89.2916 15.712904 124.192378 44.570257-1.661942 0.906514-4.230397 2.266284-6.118967 3.47497L369.15599 232.90679a31.909283 31.909283 0 0 0-16.770504 29.083981l-0.302171 286.684961v0.151085z m47.365341-100.774107l112.4077-64.135845 112.558786 63.984759v127.969519L512.158527 639.855902l-112.558785-63.984759-0.302171-127.969519v0.151086z" p-id="12314"></path></svg>